<svg width="31" height="23" viewBox="0 0 31 23" fill="none" xmlns="http://www.w3.org/2000/svg">
<path d="M30.2085 1.8752V20.6252C30.2085 21.6877 29.4017 22.5002 28.3466 22.5002H26.4847V5.48395L15.3132 13.5627L4.14179 5.48395V22.5002H2.27988C1.22355 22.5002 0.417969 21.6877 0.417969 20.6252V1.8752C0.417969 1.34395 0.619055 0.875199 0.952957 0.540199C1.12721 0.365649 1.33437 0.227955 1.56225 0.135219C1.79013 0.0424821 2.03412 -0.0034247 2.27988 0.000198964H2.90051L15.3132 9.0627L27.726 0.000198964H28.3466C28.8741 0.000198964 29.3396 0.202699 29.6735 0.540199C30.0087 0.875199 30.2085 1.34395 30.2085 1.8752Z" fill="white"/>
</svg>
