<svg width="31" height="30" viewBox="0 0 31 30" fill="none" xmlns="http://www.w3.org/2000/svg">
<path d="M15.5064 0C11.4598 0 10.9546 0.01875 9.36578 0.09C7.77943 0.165 6.69953 0.41625 5.74995 0.7875C4.77059 1.17 3.93894 1.68375 3.11101 2.5175C2.28308 3.35125 1.77167 4.1875 1.39309 5.175C1.02443 6.13125 0.773691 7.21875 0.700456 8.81625C0.625979 10.4162 0.611084 10.925 0.611084 15C0.611084 19.075 0.629703 19.5838 0.700456 21.1838C0.774932 22.78 1.02443 23.8688 1.39309 24.825C1.76707 25.8261 2.35333 26.733 3.11101 27.4825C3.85487 28.246 4.75557 28.8365 5.74995 29.2125C6.70077 29.5825 7.78067 29.8362 9.36578 29.91C10.9546 29.985 11.4598 30 15.5064 30C19.5529 30 20.0581 29.9812 21.6469 29.91C23.232 29.835 24.3132 29.5825 25.2628 29.2125C26.2566 28.8354 27.1571 28.2451 27.9017 27.4825C28.6602 26.7336 29.2465 25.8265 29.6196 24.825C29.987 23.8688 30.239 22.78 30.3123 21.1838C30.3867 19.5838 30.4016 19.075 30.4016 15C30.4016 10.925 30.383 10.4162 30.3123 8.81625C30.2378 7.22 29.987 6.13 29.6196 5.175C29.2455 4.17402 28.6592 3.26716 27.9017 2.5175C27.1584 1.7533 26.2575 1.16274 25.2628 0.7875C24.3132 0.41625 23.232 0.16375 21.6469 0.09C20.0581 0.015 19.5529 0 15.5064 0ZM15.5064 2.7C19.4822 2.7 19.9563 2.72 21.5265 2.78875C22.9788 2.8575 23.767 3.1 24.2908 3.3075C24.9884 3.57875 25.4825 3.90375 26.0063 4.4275C26.5264 4.9525 26.8491 5.45125 27.1185 6.15375C27.322 6.68125 27.5653 7.475 27.6311 8.9375C27.7019 10.52 27.718 10.995 27.718 15C27.718 19.005 27.6994 19.4813 27.6261 21.0625C27.5504 22.525 27.3084 23.3187 27.1036 23.8462C26.8613 24.4972 26.4804 25.0868 25.9877 25.5737C25.5062 26.0704 24.9211 26.4529 24.2747 26.6937C23.7534 26.8987 22.9527 27.1437 21.5005 27.21C19.9191 27.2812 19.4536 27.2975 15.4691 27.2975C11.4834 27.2975 11.0179 27.2787 9.43777 27.205C7.98424 27.1287 7.18362 26.885 6.66229 26.6788C6.01547 26.4377 5.43054 26.0537 4.95057 25.555C4.4523 25.0734 4.07016 24.4833 3.83343 23.83C3.62862 23.305 3.38781 22.4988 3.31209 21.0363C3.25624 19.4613 3.23638 18.975 3.23638 14.9812C3.23638 10.9862 3.25624 10.4988 3.31209 8.905C3.38781 7.4425 3.62862 6.6375 3.83343 6.1125C4.09409 5.4 4.428 4.9125 4.95057 4.38625C5.47067 3.8625 5.956 3.525 6.66229 3.26375C7.18362 3.05625 7.96687 2.8125 9.41915 2.7375C11.0018 2.68125 11.4673 2.6625 15.4505 2.6625L15.5064 2.7V2.7ZM15.5064 7.2975C14.5019 7.2975 13.5073 7.49673 12.5793 7.88382C11.6513 8.27091 10.8081 8.83827 10.0979 9.55351C9.38764 10.2688 8.82424 11.1179 8.43986 12.0524C8.05547 12.9869 7.85763 13.9885 7.85763 15C7.85763 16.0115 8.05547 17.0131 8.43986 17.9476C8.82424 18.8821 9.38764 19.7312 10.0979 20.4465C10.8081 21.1617 11.6513 21.7291 12.5793 22.1162C13.5073 22.5033 14.5019 22.7025 15.5064 22.7025C17.5349 22.7025 19.4804 21.891 20.9148 20.4465C22.3492 19.002 23.1551 17.0428 23.1551 15C23.1551 12.9572 22.3492 10.998 20.9148 9.55351C19.4804 8.10901 17.5349 7.2975 15.5064 7.2975V7.2975ZM15.5064 20C12.7631 20 10.5413 17.7625 10.5413 15C10.5413 12.2375 12.7631 10 15.5064 10C18.2496 10 20.4714 12.2375 20.4714 15C20.4714 17.7625 18.2496 20 15.5064 20ZM25.2454 6.99375C25.2281 7.45953 25.0323 7.90045 24.699 8.22384C24.3656 8.54723 23.9208 8.72791 23.4579 8.72791C22.9951 8.72791 22.5503 8.54723 22.2169 8.22384C21.8836 7.90045 21.6878 7.45953 21.6705 6.99375C21.6705 6.51636 21.8588 6.05852 22.194 5.72096C22.5292 5.38339 22.9839 5.19375 23.4579 5.19375C23.932 5.19375 24.3866 5.38339 24.7219 5.72096C25.0571 6.05852 25.2454 6.51636 25.2454 6.99375V6.99375Z" fill="white"/>
</svg>
