<svg width="30" height="32" viewBox="0 0 30 32" fill="none" xmlns="http://www.w3.org/2000/svg">
<path d="M14.1282 0.00257442C11.6105 0.036819 6.19316 0.453023 3.16275 3.24922C0.913154 5.50146 0.127104 8.82187 0.0355509 12.9339C-0.0429234 17.03 -0.134476 24.7219 7.22902 26.8174V30.0048C7.22902 30.0048 7.17932 31.2824 8.01638 31.5458C9.04962 31.8751 9.63818 30.8886 10.6191 29.8349L12.4502 27.7539C17.4856 28.1753 21.3439 27.202 21.7886 27.0571C22.8088 26.7278 28.5649 25.9889 29.5065 18.2958C30.4744 10.3523 29.0357 5.34736 26.446 3.08195L26.433 3.07932C25.6482 2.35491 22.5093 0.04999 15.4858 0.023648C15.4858 0.023648 14.9679 -0.00927948 14.1282 0.00257442V0.00257442ZM14.2158 2.23769C14.9286 2.23374 15.3668 2.26403 15.3668 2.26403C21.3047 2.27721 24.1441 4.08163 24.8112 4.6875C26.9954 6.56963 28.1175 11.0833 27.2962 17.7162C26.5114 24.1437 21.8422 24.552 20.979 24.8286C20.6128 24.9471 17.2122 25.7901 12.9328 25.5135C12.9328 25.5135 9.74281 29.3871 8.7488 30.3881C8.59186 30.5593 8.40875 30.612 8.29104 30.5856C8.12101 30.5461 8.06869 30.3354 8.08177 30.0456L8.10793 24.7522C1.86792 23.0136 2.23414 16.4518 2.29953 13.0274C2.37801 9.60291 3.01888 6.79486 4.91534 4.89823C7.47491 2.56697 12.0761 2.25086 14.2145 2.23769H14.2158ZM14.6867 5.66215C14.6352 5.66198 14.5842 5.67204 14.5366 5.69175C14.489 5.71146 14.4458 5.74044 14.4093 5.77703C14.3729 5.81362 14.3439 5.85709 14.3242 5.90495C14.3045 5.95282 14.2943 6.00414 14.2943 6.05596C14.2943 6.16076 14.3357 6.26126 14.4092 6.33536C14.4828 6.40946 14.5826 6.45109 14.6867 6.45109C15.659 6.43241 16.6254 6.60786 17.5301 6.96729C18.4348 7.32673 19.2598 7.86304 19.9575 8.54528C21.3832 9.94141 22.0776 11.8117 22.1038 14.2615C22.1038 14.3134 22.114 14.3648 22.1337 14.4127C22.1534 14.4606 22.1823 14.5042 22.2187 14.5409C22.2552 14.5776 22.2984 14.6067 22.346 14.6265C22.3936 14.6464 22.4447 14.6566 22.4962 14.6566V14.6448C22.6002 14.6448 22.7 14.6031 22.7736 14.529C22.8472 14.4549 22.8886 14.3544 22.8886 14.2496C22.9371 13.0976 22.7522 11.9476 22.3452 10.8697C21.9382 9.79192 21.3176 8.80879 20.5212 7.98025C18.9648 6.45241 17.0004 5.66215 14.6854 5.66215H14.6867ZM9.51524 6.57095C9.23709 6.53103 8.95371 6.58672 8.71088 6.729H8.69518C8.15894 7.04511 7.66455 7.44023 7.19371 7.96707C6.84057 8.38855 6.64308 8.8087 6.59076 9.217C6.55999 9.45647 6.58232 9.69982 6.65616 9.92955L6.68232 9.94272C7.08545 11.1362 7.61147 12.2839 8.2518 13.3672C9.08181 14.8842 10.1016 16.2879 11.2861 17.5437L11.3254 17.5964L11.3777 17.6359L11.4169 17.6754L11.4562 17.7149C12.7081 18.9108 14.1057 19.942 15.6153 20.7838C17.3417 21.7321 18.3907 22.1799 19.0185 22.3643V22.3775C19.2016 22.4301 19.369 22.4565 19.539 22.4565C20.0749 22.4171 20.5823 22.1983 20.9803 21.8348C21.4904 21.3738 21.8958 20.8628 22.1967 20.3228V20.3096C22.4975 19.7433 22.3929 19.2019 21.9612 18.8331C21.0914 18.0669 20.1496 17.3875 19.1493 16.8048C18.4822 16.436 17.8021 16.6599 17.5275 17.0287L16.9389 17.7781C16.6381 18.1469 16.0888 18.0943 16.0888 18.0943L16.0731 18.1074C11.9924 17.0537 10.9068 12.893 10.9068 12.893C10.9068 12.893 10.8545 12.3267 11.2338 12.0369L11.9662 11.4442C12.3194 11.1545 12.5679 10.4696 12.1886 9.79784C11.6107 8.78991 10.9361 7.84146 10.1744 6.96608C10.0087 6.75916 9.77485 6.61895 9.51524 6.57095V6.57095ZM15.3655 7.74317C15.2614 7.74352 15.1618 7.78548 15.0884 7.85983C15.0151 7.93418 14.9741 8.03482 14.9744 8.13961C14.9748 8.24441 15.0164 8.34477 15.0903 8.41863C15.1641 8.49248 15.264 8.53378 15.3681 8.53343C16.677 8.55631 17.9234 9.10102 18.834 10.0481C19.2449 10.5045 19.5607 11.0392 19.7629 11.6206C19.9651 12.2019 20.0495 12.8182 20.0112 13.433C20.0115 13.5376 20.053 13.6378 20.1265 13.7116C20.2001 13.7854 20.2997 13.8269 20.4035 13.8268L20.4166 13.8427C20.4682 13.8427 20.5194 13.8324 20.5671 13.8125C20.6148 13.7925 20.6581 13.7633 20.6945 13.7265C20.731 13.6896 20.7599 13.6459 20.7795 13.5978C20.7991 13.5497 20.8092 13.4982 20.809 13.4462C20.8482 11.8789 20.3643 10.5618 19.4095 9.50808C18.4548 8.4544 17.1207 7.86171 15.4204 7.74317C15.4021 7.74188 15.3838 7.74188 15.3655 7.74317V7.74317ZM16.0064 9.87555C15.9539 9.874 15.9016 9.88286 15.8526 9.90164C15.8035 9.92043 15.7586 9.94876 15.7204 9.98502C15.6822 10.0213 15.6515 10.0648 15.6299 10.113C15.6084 10.1612 15.5966 10.2132 15.595 10.2661C15.5935 10.3189 15.6023 10.3715 15.6209 10.421C15.6396 10.4704 15.6677 10.5156 15.7037 10.5541C15.7397 10.5925 15.7829 10.6235 15.8308 10.6451C15.8787 10.6668 15.9303 10.6787 15.9828 10.6803C17.2776 10.7462 17.9054 11.4047 17.9839 12.7613C17.9873 12.8638 18.0301 12.961 18.1034 13.0322C18.1766 13.1035 18.2744 13.1433 18.3763 13.1433H18.3894C18.4421 13.1416 18.4939 13.1293 18.5417 13.107C18.5896 13.0848 18.6325 13.053 18.6679 13.0137C18.7033 12.9743 18.7305 12.9282 18.7478 12.8781C18.7651 12.8279 18.7722 12.7748 18.7687 12.7218C18.6771 10.9569 17.7223 9.96775 16.0221 9.87555C16.0168 9.87545 16.0116 9.87545 16.0064 9.87555V9.87555Z" fill="white"/>
</svg>
