<svg width="31" height="30" viewBox="0 0 31 30" fill="none" xmlns="http://www.w3.org/2000/svg">
<path d="M30.6047 15.0006C30.6047 6.71528 23.9363 0 15.7101 0C7.48382 0 0.81543 6.71528 0.81543 15.0006C0.81543 22.4859 6.26236 28.6912 13.3826 29.8162V19.3358H9.60152V14.9994H13.3826V11.6955C13.3826 7.93533 15.607 5.85899 19.0083 5.85899C20.6381 5.85899 22.3425 6.15151 22.3425 6.15151V9.84291H20.4656C18.616 9.84291 18.0388 10.9992 18.0388 12.1855V15.0006H22.1699L21.5095 19.3371H18.0388V29.8175C25.159 28.6924 30.606 22.4872 30.606 15.0006H30.6047Z" fill="white"/>
</svg>
