<svg width="31" height="31" viewBox="0 0 31 31" fill="none" xmlns="http://www.w3.org/2000/svg">
<path d="M21.9335 18.0633C21.5631 17.8762 19.7409 16.9744 19.4017 16.8488C19.0612 16.7245 18.8143 16.6629 18.5661 17.0372C18.3204 17.4102 17.6095 18.2504 17.3937 18.4991C17.178 18.7491 16.9609 18.7792 16.5905 18.5933C16.2201 18.4049 15.0253 18.0118 13.6097 16.7408C12.5085 15.7511 11.7639 14.529 11.5481 14.1548C11.3324 13.7817 11.5257 13.5795 11.7103 13.3936C11.8774 13.2266 12.0819 12.9578 12.2665 12.7405C12.4523 12.522 12.5134 12.3663 12.6382 12.1163C12.7616 11.8676 12.7005 11.6504 12.607 11.4632C12.5134 11.2761 11.7726 9.43861 11.4646 8.69131C11.1627 7.96411 10.8572 8.06333 10.6302 8.05077C10.3933 8.04127 10.1563 8.03709 9.91928 8.03821C9.67234 8.03821 9.27074 8.13115 8.93151 8.50543C8.59227 8.87845 7.63443 9.78149 7.63443 11.619C7.63443 13.4552 8.96269 15.2299 9.14727 15.4798C9.3331 15.7285 11.7614 19.4989 15.4793 21.1153C16.3635 21.4996 17.0532 21.7295 17.592 21.9003C18.48 22.1854 19.2882 22.1452 19.9255 22.0485C20.6377 21.9417 22.1181 21.1454 22.4274 20.2738C22.7367 19.4022 22.7367 18.6549 22.6432 18.4991C22.5509 18.3434 22.3039 18.2504 21.9323 18.0633M15.1712 27.3612H15.1662C12.9584 27.3614 10.7912 26.7636 8.8916 25.6305L8.44136 25.3617L3.77561 26.5951L5.02031 22.0133L4.72722 21.5436C3.49304 19.5645 2.84014 17.2742 2.84395 14.9372C2.8452 8.09222 8.37651 2.52328 15.1762 2.52328C18.4688 2.52328 21.5643 3.81692 23.8916 6.16306C25.0399 7.3143 25.95 8.68344 26.5693 10.1912C27.1887 11.699 27.5049 13.3156 27.4997 14.9473C27.496 21.7923 21.9659 27.3612 15.1712 27.3612M25.6639 4.38085C24.2897 2.98789 22.6547 1.88341 20.8535 1.13142C19.0524 0.379432 17.121 -0.00511962 15.1712 5.14663e-05C6.99586 5.14663e-05 0.342084 6.70061 0.338342 14.936C0.338342 17.5685 1.02056 20.1382 2.31889 22.4027L0.213623 30.1432L8.07718 28.0658C10.2518 29.2589 12.6886 29.8841 15.165 29.8844H15.1712C23.3453 29.8844 30.0004 23.1839 30.0041 14.9473C30.0101 12.9845 29.6296 11.0401 28.8846 9.2264C28.1397 7.4127 27.045 5.76576 25.6639 4.38085V4.38085Z" fill="white"/>
</svg>
